# xmcd
#
# Track frame offsets: 
#        150
#        21013
#        42363
#        63079
#        90200
#        113014
#        141341
#        159344
#        183739
#        204838
#        222552
#        242662
#        263627
#        285806
#        304806
#
# Disc length: 4328 seconds
#
# Revision: 11
# Processed by: cddbd v1.5.2PL0 Copyright (c) Steve Scherf et al.
# Submitted via: ExactAudioCopyFreeDBPlugin 1.0
#
DISCID=c410e60f
DTITLE=MISIA - Suoer Best Records -15th Celebration- 1
DYEAR=2013
DGENRE=J-POP
TTITLE0=(15th ver.)
TTITLE1=DEEPNESS
TTITLE2=??????????
TTITLE3=???????
TTITLE4=SNOW SONG
TTITLE5=To Be In Love
TTITLE6=THIS IS ME
TTITLE7=BACK BLOCKS
TTITLE8=Color of Life
TTITLE9=Royal colate FlushCho
TTITLE10=Don't stop music!
TTITLE11=Back In Love Agein (feat.????)
TTITLE12=???????
TTITLE13=LUV PARADE
TTITLE14=CATCH THE RAINBOW(15th ver.)
EXTD=YEAR: 2013
EXTT0=
EXTT1=
EXTT2=
EXTT3=
EXTT4=
EXTT5=
EXTT6=
EXTT7=
EXTT8=
EXTT9=
EXTT10=
EXTT11=
EXTT12=
EXTT13=
EXTT14=
PLAYORDER=
